<?xml version="1.0"?>
<svg xmlns:dc="http://purl.org/dc/elements/1.1/" xmlns:cc="http://creativecommons.org/ns#" xmlns:rdf="http://www.w3.org/1999/02/22-rdf-syntax-ns#" xmlns:svg="http://www.w3.org/2000/svg" xmlns="http://www.w3.org/2000/svg" xmlns:sodipodi="http://sodipodi.sourceforge.net/DTD/sodipodi-0.dtd" xmlns:inkscape="http://www.inkscape.org/namespaces/inkscape" width="450.543pt" height="136.44531pt" viewBox="0 0 450.54298 136.44531" version="1.1" id="svg21">
  <metadata id="metadata27">
    <RDF>
      <Work>
        <format>image/svg+xml</format>
        <type></type>
        <title></title>
      </Work>
    </RDF>
  </metadata>
  <defs id="defs25"></defs>
  <namedview pagecolor="#ffffff" bordercolor="#666666" borderopacity="1" objecttolerance="10" gridtolerance="10" guidetolerance="10" id="namedview23" showgrid="false" fit-margin-top="0" fit-margin-left="0" fit-margin-right="0" fit-margin-bottom="0"></namedview>
  <g id="surface1" transform="translate(-72,-80.539062)">
    <path style="fill:#0063ff;fill-opacity:1;fill-rule:nonzero;stroke:none" d="m 180,170.57422 h -72 v 13.5 h 72 z m 22.5,31.96094 H 85.5 V 93.5625 h 117 z m 0,-121.996098 h -117 l -13.5,13.5 V 202.03906 l 13.5,13.5 h 117 l 13.5,-13.5 V 94.039062 Z M 180,141.30078 h -72 v 13.5 h 72 z m 0,-29.22656 h -72 v 13.5 h 72 z m 0,0" id="path2"></path>
    <path style="fill:#303097;fill-opacity:1;fill-rule:nonzero;stroke:none" d="m 271.32031,127.89063 h 10.76563 c 3.23047,0 5.66797,-0.85157 7.29687,-2.55469 1.63281,-1.69922 2.44922,-4.07422 2.44922,-7.1211 0,-3.04687 -0.82422,-5.4375 -2.47266,-7.17187 -1.64843,-1.73047 -4.07031,-2.59766 -7.27343,-2.59766 h -10.76563 z m 9.21485,13.09374 h -9.21485 v 24.97266 H 254.30078 V 95.351562 h 27.78516 c 8.375,0 14.91797,1.855469 19.64062,5.570318 4.71875,3.71484 7.07813,8.96093 7.07813,15.74218 0,4.91016 -0.99219,8.98047 -2.98047,12.20703 -1.98828,3.23047 -5.10156,5.84766 -9.33594,7.84766 l 14.74219,28.50781 v 0.73047 h -18.23438 z m 0,0" id="path4"></path>
    <path style="fill:#303097;fill-opacity:1;fill-rule:nonzero;stroke:none" d="m 374.28125,139.625 8.09766,-44.273438 h 16.8789 l -14.98828,70.605468 h -17.64844 l -9.45703,-40.25 -9.26172,40.25 H 330.30078 L 315.26562,95.351562 h 16.92579 l 8.09765,44.273438 9.69922,-44.273438 h 14.44922 z m 0,0" id="path6"></path>
    <path style="fill:#303097;fill-opacity:1;fill-rule:nonzero;stroke:none" d="m 423.41797,108.49219 v 44.37109 h 5.91406 c 4.88281,0 8.63281,-1.73828 11.25,-5.21484 2.61719,-3.47266 3.92969,-8.63672 3.92969,-15.49219 v -3.05469 c 0,-6.82031 -1.3125,-11.96093 -3.92969,-15.42187 -2.61719,-3.45703 -6.43359,-5.1875 -11.44141,-5.1875 z m -17.02344,57.46484 V 95.351562 h 22.74609 c 6.23829,0 11.84766,1.414063 16.82422,4.242188 4.97657,2.82813 8.86719,6.82031 11.66407,11.97656 2.79687,5.15625 4.21093,10.9375 4.24218,17.33594 v 3.25 c 0,6.46875 -1.36718,12.26172 -4.09765,17.38672 -2.73438,5.125 -6.57813,9.13281 -11.54297,12.02344 -4.96094,2.89453 -10.4961,4.35937 -16.60547,4.39062 z m 0,0" id="path8"></path>
    <path style="fill:#303097;fill-opacity:1;fill-rule:nonzero;stroke:none" d="m 488.78906,152.86328 h 33.75391 v 13.09375 h -54.99219 v -8.97266 l 33.65234,-48.49218 H 467.35547 V 95.351562 h 54.84375 v 8.726568 z m 0,0" id="path10"></path>
    <path style="fill:#0063ff;fill-opacity:1;fill-rule:nonzero;stroke:none" d="m 290.11719,210.11719 c -3.32422,4.12109 -9.4375,6.86718 -17.72266,6.86718 -12.71484,0 -20.60156,-6.02343 -20.60156,-16.52343 0,-10.5 7.88672,-16.52735 20.60156,-16.52735 7.66406,0 13.20313,2.70313 16.4375,5.71875 l -6.60156,4.8711 c -2.65625,-2.39063 -5.44922,-3.45703 -9.61328,-3.45703 -7.53125,0 -11.65235,3.32421 -11.65235,9.39453 0,6.11328 4.25391,9.4375 11.78516,9.4375 3.80859,0 6.82422,-0.75391 8.99609,-2.7461 v -2.79297 h -10.28125 v -6.33593 h 18.65235 z m 0,0" id="path12"></path>
    <path style="fill:#0063ff;fill-opacity:1;fill-rule:nonzero;stroke:none" d="m 331.53906,184.95312 v 16.39454 c 0,9.4375 -6.42187,15.63671 -17.98437,15.63671 -11.56641,0 -18.03516,-6.19921 -18.03516,-15.63671 v -16.39454 h 9.03906 v 15.6836 c 0,5.40625 3.01172,8.90625 8.9961,8.90625 5.98047,0 8.94922,-3.5 8.94922,-8.90625 v -15.6836 z m 0,0" id="path14"></path>
    <path style="fill:#0063ff;fill-opacity:1;fill-rule:nonzero;stroke:none" d="m 374.82422,184.95312 v 31.01563 h -7.92969 l -20.02734,-20.38281 v 20.38281 h -8.72657 v -31.01563 h 9.57032 l 18.38672,18.96485 v -18.96485 z m 0,0" id="path16"></path>
    <path style="fill:#0063ff;fill-opacity:1;fill-rule:nonzero;stroke:none" d="m 409.37891,206.39844 c 0,-2.52735 -1.90625,-3.23438 -5.09375,-3.23438 h -13.11329 v 6.51172 h 13.11329 c 3.1875,0 5.09375,-0.75391 5.09375,-3.27734 m -18.20704,-9.08203 h 11.73829 c 3.01171,0 5.00781,-0.66407 5.00781,-3.0586 0,-2.34765 -1.9961,-3.01172 -5.00781,-3.01172 h -11.73829 z m 27.46875,10.14453 c 0,5.35937 -4.83203,8.50781 -12.45312,8.50781 h -23.96875 v -31.01563 h 22.19922 c 7.62109,0 12.44922,3.0586 12.44922,8.01954 0,3.5 -2.4375,6.55859 -7.08985,6.82421 4.875,0.3086 8.86328,2.87891 8.86328,7.66407" id="path18"></path>
  </g>
</svg>